#!OML:ASF H:\Terrain\Patient Classification 1\Terrain2\Thursday\justin.ASF
:FULLY-SPECIFIED
:DEGREES
2993
root -1.66147 22.9123 3.89721 1085.09 -176.602 2.42513
lowerback 9.83156 -0.785191 2.16341
upperback 0.97843 -0.88878 3.62286
thorax -4.46877 -0.554984 2.68825
lowerneck -15.7386 -4.82689 -8.79851
upperneck 33.0752 -3.58979 5.03177
head 14.2694 -1.12347 3.19352
rclavicle -6.95746e-015 -1.35174e-014
rhumerus -31.3466 -11.1896 -77.3899
rradius 27.7466
rwrist -6.9811
rhand -20.4175 12.6941
rfingers 7.12502
rthumb 5.93676 -17.2027
lclavicle -6.95746e-015 -1.35174e-014
lhumerus -33.0031 4.60833 86.2627
lradius 25.7764
lwrist 0.335391
lhand -20.9565 17.9488
lfingers 7.12502
lthumb 5.41632 47.8596
rfemur -35.9724 -7.16905 28.5713
rtibia 52.3937
rfoot -17.5412 2.62885
rtoes 22.8055
lfemur -6.64413 -2.92225 -15.8398
ltibia 53.3883
lfoot 34.2015 -1.63774
ltoes 26.0714
2994
root -1.64879 22.9913 3.76507 1084.7 -176.524 2.91062
lowerback 10.038 -0.700038 2.65235
upperback 1.03167 -0.733594 3.79753
thorax -4.53589 -0.497634 2.57983
lowerneck -15.5839 -1.98959 -9.97762
upperneck 32.7492 -4.91797 6.36833
head 14.1803 -3.43911 3.27991
rclavicle 1.21259e-014 7.15625e-015
rhumerus -31.1672 -10.6778 -77.3985
rradius 28.4095
rwrist -7.49747
rhand -20.7055 12.7446
rfingers 7.12502
rthumb 5.65866 -17.1598
lclavicle 1.21259e-014 7.15625e-015
lhumerus -33.1126 4.51356 86.3224
lradius 26.0375
lwrist 0.964111
lhand -21.5741 18.3318
lfingers 7.12502
lthumb 4.82 48.257
rfemur -34.2702 -7.13353 29.0307
rtibia 50.94
rfoot -17.3729 2.46592
rtoes 21.7581
lfemur -8.11276 -2.54278 -15.0303
ltibia 56.6899
lfoot 34.2806 -0.999341
ltoes 26.8418
2995
root -1.63476 23.0766 3.62781 1084.4 -176.479 3.46579
lowerback 10.0543 -0.60644 3.20711
upperback 1.10964 -0.570637 3.93919
thorax -4.47003 -0.43712 2.39328
lowerneck -15.5995 -2.08745 -10.1215
upperneck 32.8253 -5.07262 6.46557
head 14.243 -3.51547 3.31967
rclavicle -6.75868e-015 7.95139e-015
rhumerus -31.0007 -10.288 -77.4832
rradius 29.1498
rwrist -8.03011
rhand -20.6919 12.3988
rfingers 7.12502
rthumb 5.6718 -17.5053
lclavicle -6.75868e-015 7.95139e-015
lhumerus -33.2364 4.30423 86.3471
lradius 26.4591
lwrist 1.76357
lhand -21.5108 18.9602
lfingers 7.12502
lthumb 4.88119 48.8839
rfemur -32.6446 -7.10894 29.5912
rtibia 49.4818
rfoot -17.2908 2.32603
rtoes 21.6914
lfemur -9.73536 -1.93443 -14.193
ltibia 59.8638
lfoot 34.1633 -2.12592
ltoes 24.5114
2996
root -1.61825 23.1619 3.49215 1084.14 -176.352 3.84629
lowerback 10.063 -0.581822 3.5638
upperback 1.08947 -0.504188 3.9948
thorax -4.49893 -0.414738 2.24288
lowerneck -15.4152 -2.04851 -10.1406
upperneck 32.9632 -5.17568 6.68053
head 14.2806 -3.55965 3.39524
rclavicle 1.13307e-014 -4.92986e-014
rhumerus -30.9328 -9.92352 -77.609
rradius 29.7606
rwrist -8.49391
rhand -20.6941 11.9574
rfingers 7.12502
rthumb 5.66968 -17.9468
lclavicle 1.13307e-014 -4.92986e-014
lhumerus -33.4424 4.41502 86.0673
lradius 26.6766
lwrist 2.16029
lhand -21.1574 19.6867
lfingers 7.12502
lthumb 5.22234 49.6024
rfemur -31.0498 -7.23887 29.9997
rtibia 48.024
rfoot -17.1033 2.19524
rtoes 21.9334
lfemur -11.5212 -1.60517 -13.5333
ltibia 62.9767
lfoot 33.4937 -3.03224
ltoes 22.566
2997
root -1.60834 23.2413 3.3569 1083.79 -176.228 3.58459
lowerback 10.1104 -0.591006 3.28482
upperback 1.16103 -0.545291 3.93134
thorax -4.44851 -0.427601 2.3381
lowerneck -15.3612 -1.99482 -10.1778
upperneck 33.0928 -5.16091 6.7542
head 14.3277 -3.56418 3.43589
rclavicle -1.27222e-014 2.38542e-015
rhumerus -30.6379 -9.35068 -77.7137
rradius 30.2817
rwrist -9.09291
rhand -20.8697 11.97
rfingers 7.12502
rthumb 5.50017 -17.9386
lclavicle -1.27222e-014 2.38542e-015
lhumerus -33.434 4.93212 85.7789
lradius 26.6738
lwrist 2.20629
lhand -21.4043 20.0612
lfingers 7.12502
lthumb 4.98394 49.9826
rfemur -29.3636 -7.38772 29.594
rtibia 46.5383
rfoot -16.7687 2.32173
rtoes 23.0777
lfemur -13.0128 -1.60975 -13.6572
ltibia 66.0497
lfoot 32.2914 -2.78475
ltoes 22.4156
2998
root -1.59994 23.3102 3.22438 1083.39 -176.173 3.49254
lowerback 10.1942 -0.541599 3.18921
upperback 1.26794 -0.495573 3.90072
thorax -4.38361 -0.402566 2.35255
lowerneck -15.4295 -2.03033 -10.2327
upperneck 33.2015 -5.21156 6.75866
head 14.4005 -3.59696 3.43982
rclavicle 1.33186e-014 -3.49861e-014
rhumerus -30.3818 -8.94303 -77.7619
rradius 30.9475
rwrist -9.55725
rhand -20.8151 11.8631
rfingers 7.12502
rthumb 5.55291 -18.0441
lclavicle 1.33186e-014 -3.49861e-014
lhumerus -33.5629 5.22041 85.6317
lradius 27.066
lwrist 2.3497
lhand -21.7982 20.1758
lfingers 7.12502
lthumb 4.60363 50.1057
rfemur -27.6079 -7.5299 29.3929
rtibia 44.9991
rfoot -16.522 2.36869
rtoes 23.6025
lfemur -14.3129 -1.46569 -13.5712
ltibia 69.0502
lfoot 30.8683 -2.48964
ltoes 23.1821
2999
root -1.5871 23.3754 3.09435 1083.03 -176.108 3.94734
lowerback 10.2761 -0.459915 3.69152
upperback 1.31189 -0.341963 3.92808
thorax -4.3872 -0.341293 2.07875
lowerneck -15.4077 -2.07563 -10.204
upperneck 33.2974 -5.35281 6.84466
head 14.4574 -3.65185 3.44729
rclavicle 3.97569e-015 4.13472e-014
rhumerus -30.4021 -8.84874 -77.8603
rradius 31.8785
rwrist -9.74657
rhand -20.7694 11.3124
rfingers 7.12502
rthumb 5.59699 -18.5937
lclavicle 3.97569e-015 4.13472e-014
lhumerus -33.9544 4.94308 85.543
lradius 27.8859
lwrist 3.32826
lhand -22.976 20.1992
lfingers 7.12502
lthumb 3.46624 50.1508
rfemur -25.8938 -7.73205 29.8913
rtibia 43.4399
rfoot -16.2763 2.17209
rtoes 22.2968
lfemur -15.7807 -1.08726 -12.7855
ltibia 71.9069
lfoot 29.24 -2.89851
ltoes 24.4176
3000
root -1.57406 23.4417 2.9642 1082.73 -176.036 4.45854
lowerback 10.266 -0.396474 4.32153
upperback 1.36375 -0.205318 3.92082
thorax -4.32882 -0.289534 1.69783
lowerneck -15.3086 -2.08956 -10.0046
upperneck 33.3258 -5.45959 6.83124
head 14.4529 -3.68088 3.38867
rclavicle -1.5704e-014 -7.95139e-014
rhumerus -30.3324 -8.72782 -78.0727
rradius 32.7209
rwrist -10.1213
rhand -20.9355 11.0031
rfingers 7.12502
rthumb 5.43663 -18.9072
lclavicle -1.5704e-014 -7.95139e-014
lhumerus -34.0901 4.60565 85.3694
lradius 28.3515
lwrist 4.47061
lhand -24.109 20.4122
lfingers 7.12502
lthumb 2.37211 50.3788
rfemur -24.2821 -7.85844 30.4332
rtibia 41.9275
rfoot -16.0426 2.09355
rtoes 21.8796
lfemur -17.3307 -0.5804 -11.9671
ltibia 74.5975
lfoot 27.107 -4.26883
ltoes 23.2835
3001
root -1.56671 23.5018 2.83781 1082.48 -176.051 4.82349
lowerback 10.2326 -0.36328 4.79558
upperback 1.36631 -0.120984 3.94153
thorax -4.30679 -0.259791 1.44206
lowerneck -14.9885 -2.09881 -10.0897
upperneck 33.2847 -5.53946 6.90644
head 14.3755 -3.73248 3.42124
rclavicle 6.95746e-015 -8.74653e-015
rhumerus -30.1285 -8.17606 -78.2672
rradius 33.2515
rwrist -11.1114
rhand -21.3657 11.2209
rfingers 7.12502
rthumb 5.02122 -18.6996
lclavicle 6.95746e-015 -8.74653e-015
lhumerus -34.1232 4.78453 85.0921
lradius 28.4831
lwrist 4.48555
lhand -23.2298 21.3826
lfingers 7.12502
lthumb 3.22114 51.338
rfemur -22.7819 -7.89806 30.7704
rtibia 40.4927
rfoot -15.8474 2.14463
rtoes 22.428
lfemur -18.8038 -0.170882 -11.3668
ltibia 77.0224
lfoot 24.9381 -4.85613
ltoes 22.9352
3002
root -1.56229 23.5628 2.71221 1082.2 -176.05 4.89193
lowerback 10.2087 -0.325191 4.92942
upperback 1.40181 -0.0635193 3.92876
thorax -4.25533 -0.234117 1.34499
lowerneck -14.6823 -2.15103 -10.3282
upperneck 33.2233 -5.66653 7.07749
head 14.3071 -3.8096 3.51262
rclavicle 1.77912e-014 2.94201e-014
rhumerus -29.8902 -7.55799 -78.4628
rradius 33.7294
rwrist -12.5702
rhand -22.0219 11.4884
rfingers 7.12502
rthumb 4.38758 -18.4461
lclavicle 1.77912e-014 2.94201e-014
lhumerus -34.1511 5.10596 84.8575
lradius 28.5386
lwrist 4.10579
lhand -22.7967 22.8771
lfingers 7.12502
lthumb 3.63942 52.8258
rfemur -21.232 -7.94974 30.7065
rtibia 39.1519
rfoot -15.6283 2.43968
rtoes 24.5451
lfemur -20.1912 0.163199 -11.1421
ltibia 79.2102
lfoot 23.1121 -5.30968
ltoes 23.2441
3003
root -1.55698 23.626 2.58468 1081.83 -176.043 5.05244
lowerback 10.278 -0.287405 5.11353
upperback 1.46734 -0.000148466 3.92256
thorax -4.22365 -0.208338 1.22694
lowerneck -14.4034 -2.15974 -10.4174
upperneck 33.1327 -5.7616 7.26317
head 14.2233 -3.84832 3.58903
rclavicle -1.41137e-014 -1.82882e-014
rhumerus -29.7698 -7.36869 -78.5384
rradius 34.334
rwrist -13.1192
rhand -22.2247 11.6106
rfingers 7.12502
rthumb 4.19178 -18.3279
lclavicle -1.41137e-014 -1.82882e-014
lhumerus -34.0727 5.51061 84.4789
lradius 28.2396
lwrist 3.4807
lhand -24.1405 23.7505
lfingers 7.12502
lthumb 2.34165 53.7174
rfemur -19.5952 -8.02324 30.7368
rtibia 37.8851
rfoot -15.4316 2.70241
rtoes 26.3281
lfemur -21.4666 0.670299 -10.8337
ltibia 81.2178
lfoot 21.2469 -6.55534
ltoes 20.6723
3004
root -1.55095 23.6755 2.46121 1081.46 -176.132 5.52123
lowerback 10.3988 -0.226707 5.55662
upperback 1.50542 0.11963 4.00994
thorax -4.24634 -0.164888 1.05592
lowerneck -14.1994 -2.14709 -10.6067
upperneck 33.1173 -5.84689 7.57136
head 14.1971 -3.88382 3.73618
rclavicle 7.95139e-016 -3.02153e-014
rhumerus -29.6723 -7.52923 -78.3583
rradius 34.8428
rwrist -12.4476
rhand -21.7347 11.714
rfingers 7.12502
rthumb 4.6649 -18.2147
lclavicle 7.95139e-016 -3.02153e-014
lhumerus -34.0203 5.66339 84.2314
lradius 28.046
lwrist 3.32921
lhand -24.6554 23.1123
lfingers 7.12502
lthumb 1.84434 53.084
rfemur -18.1354 -8.09051 31.2303
rtibia 36.6116
rfoot -15.1596 2.4023
rtoes 23.9071
lfemur -22.6573 1.03757 -10.0943
ltibia 83.1054
lfoot 19.7093 -6.76624
ltoes 21.4969
3005
root -1.54377 23.7169 2.34055 1081.12 -176.24 5.79603
lowerback 10.5698 -0.110524 5.82526
upperback 1.52314 0.307496 4.04488
thorax -4.31625 -0.0826662 0.918169
lowerneck -14.2224 -2.1846 -10.6648
upperneck 33.3378 -5.95538 7.58476
head 14.3181 -3.95432 3.73611
rclavicle -6.26172e-015 4.13472e-014
rhumerus -29.5009 -7.45088 -78.2778
rradius 35.1413
rwrist -12.6144
rhand -21.8394 12.0962
rfingers 7.12502
rthumb 4.56389 -17.8346
lclavicle -6.26172e-015 4.13472e-014
lhumerus -34.1364 5.26771 84.3215
lradius 28.2769
lwrist 4.15011
lhand -23.8616 21.303
lfingers 7.12502
lthumb 2.61103 51.2667
rfemur -16.701 -8.06645 31.5315
rtibia 35.2952
rfoot -14.7774 2.02835
rtoes 21.9095
lfemur -23.9362 1.33788 -9.56611
ltibia 85.0272
lfoot 18.3448 -6.85281
ltoes 23.1815
3006
root -1.5357 23.7561 2.21838 1080.8 -176.304 6.07492
lowerback 10.7281 -0.0514981 6.08848
upperback 1.44291 0.431272 4.10354
thorax -4.48309 -0.0331909 0.817936
lowerneck -14.0779 -2.12035 -10.5926
upperneck 33.6288 -5.93825 7.39914
head 14.4052 -3.99716 3.6516
rclavicle 4.47266e-015 2.06736e-014
rhumerus -29.4984 -6.90055 -78.3622
rradius 35.5584
rwrist -13.6218
rhand -22.3594 12.1365
rfingers 7.12502
rthumb 4.06172 -17.8045
lclavicle 4.47266e-015 2.06736e-014
lhumerus -34.4289 5.14911 84.2968
lradius 28.4024
lwrist 4.55525
lhand -22.9268 20.0382
lfingers 7.12502
lthumb 3.51378 49.9889
rfemur -15.2444 -7.97545 31.8011
rtibia 33.9998
rfoot -14.3394 1.87186
rtoes 22.4942
lfemur -25.2928 1.86372 -9.08913
ltibia 86.7975
lfoot 16.7395 -7.70414
ltoes 20.5623
